# xmcd
#
# Track frame offsets:
#	151
#	12480
#	26529
#	38926
#	54093
#	67916
#	82043
#	93242
#	107073
#	120830
#	139379
#	153648
#	172505
#	184986
#	194467
#	211890
#	225193
#	237974
#	252095
#	267798
#
# Disc length: 3810 seconds
#
# Revision: 1
# Processed by: cddbd v1.5.2PL0 Copyright (c) Steve Scherf et al.
# Submitted via: audiograbber 1.83.01
#
DISCID=fb0ee014
DTITLE=Diverse kunstnere country - Alternative Country 04
DYEAR=1998
DGENRE=Country
TTITLE0=Sleeping Alone - Brian Jones
TTITLE1=Tonight It May Not Rain In Georgia - Patsy Christy
TTITLE2=Lonly Place - Tom and Beverly Grant
TTITLE3=If Only The World Would Live In Peace - Keith Bradford
TTITLE4=Love Comes - Sherry Robbinson
TTITLE5=Mothers Child - Beverly Grant
TTITLE6=Chiken Thief - Charlotte Bradford
TTITLE7=When The Fox Goes Chasin´ The Hound - Patsy Christy
TTITLE8=God´s Glory - Keith Bradford
TTITLE9=Does You Consicence Bother You - Sherry Robbinson
TTITLE10=I Miss The Music Of My Band - Keith Bradford
TTITLE11=August Rain - Tom Grant
TTITLE12=Thankfull For Spring - Tom Grant
TTITLE13=Thankful - Keith Bradford
TTITLE14=True Freinds And Family - Sherry Robbinson
TTITLE15=Do You Belive In Our Father - Sherry Robbinson
TTITLE16=Heaven Had A Reason - Sherry Robbinson
TTITLE17=She Was Hot, Country, She Was Cool - To Grant
TTITLE18=When Times Are Hard - Keith Bradford
TTITLE19=Stampede - John Terni
EXTD=
EXTT0=
EXTT1=
EXTT2=
EXTT3=
EXTT4=
EXTT5=
EXTT6=
EXTT7=
EXTT8=
EXTT9=
EXTT10=
EXTT11=
EXTT12=
EXTT13=
EXTT14=
EXTT15=
EXTT16=
EXTT17=
EXTT18=
EXTT19=
PLAYORDER=
